HIERARCHY
ROOT Hips
{
	OFFSET 0.00 0.00 0.00
	CHANNELS 6 Xposition Yposition Zposition Xrotation Yrotation Zrotation
	JOINT Spine
	{
		OFFSET 0.00000 4.35446 0.00000
		CHANNELS 3 Xrotation Yrotation Zrotation
		JOINT Head
		{
			OFFSET 0.00000 16.58177 0.00000
			CHANNELS 3 Xrotation Yrotation Zrotation
			End Site
			{
				OFFSET 0.00000 4.52755 0.00000
			}
		}
		JOINT LeftShoulder
		{
			OFFSET 0.00000 12.90370 0.00000
			CHANNELS 3 Xrotation Yrotation Zrotation
			JOINT LeftArm
			{
				OFFSET 6.94203 0.00000 0.00000
				CHANNELS 3 Xrotation Yrotation Zrotation
				JOINT LeftForeArm
				{
					OFFSET 11.01039 0.00000 0.00000
					CHANNELS 3 Zrotation Yrotation Xrotation
					JOINT LeftHand
					{
						OFFSET 8.05499 0.00000 0.00000
						CHANNELS 3 Xrotation Yrotation Zrotation
						JOINT LeftHandThumb1
						{
							OFFSET 0.00000 0.00000 0.00000
							CHANNELS 3 Xrotation Yrotation Zrotation
							End Site
							{
								OFFSET 0.00000 0.00000 3.93700
							}
						}
						End Site
						{
							OFFSET 3.93700 0.00000 0.00000
						}
					}
				}
			}
		}
		JOINT RightShoulder
		{
			OFFSET 0.00000 12.90370 0.00000
			CHANNELS 3 Xrotation Yrotation Zrotation
			JOINT RightArm
			{
				OFFSET -6.94203 0.00000 0.00000
				CHANNELS 3 Xrotation Yrotation Zrotation
				JOINT RightForeArm
				{
					OFFSET -11.01039 0.00000 0.00000
					CHANNELS 3 Zrotation Yrotation Xrotation
					JOINT RightHand
					{
						OFFSET -8.05499 0.00000 0.00000
						CHANNELS 3 Xrotation Yrotation Zrotation
						JOINT RightHandThumb1
						{
							OFFSET 0.00000 0.00000 0.00000
							CHANNELS 3 Xrotation Yrotation Zrotation
							End Site
							{
								OFFSET 0.00000 0.00000 3.93700
							}
						}
						End Site
						{
							OFFSET -3.93700 0.00000 0.00000
						}
					}
				}
			}
		}
	}
	JOINT LeftUpLeg
	{
		OFFSET 4.29108 0.00000 0.00000
		CHANNELS 3 Xrotation Yrotation Zrotation
		JOINT LeftLeg
		{
			OFFSET 0.00000 -17.03996 0.00000
			CHANNELS 3 Xrotation Yrotation Zrotation
			JOINT LeftFoot
			{
				OFFSET 0.00000 -16.93974 0.00000
				CHANNELS 3 Xrotation Yrotation Zrotation
				JOINT LeftToeBase
				{
					OFFSET 0.00000 -1.35493 5.05666
					CHANNELS 3 Xrotation Yrotation Zrotation
					End Site
					{
						OFFSET 0.00000 0.00000 2.95275
					}
				}
			}
		}
	}
	JOINT RightUpLeg
	{
		OFFSET -4.29108 0.00000 0.00000
		CHANNELS 3 Xrotation Yrotation Zrotation
		JOINT RightLeg
		{
			OFFSET 0.00000 -17.03996 0.00000
			CHANNELS 3 Xrotation Yrotation Zrotation
			JOINT RightFoot
			{
				OFFSET 0.00000 -16.93974 0.00000
				CHANNELS 3 Xrotation Yrotation Zrotation
				JOINT RightToeBase
				{
					OFFSET 0.00000 -1.35493 5.05666
					CHANNELS 3 Xrotation Yrotation Zrotation
					End Site
					{
						OFFSET 0.00000 0.00000 2.95275
					}
				}
			}
		}
	}
}
MOTION
Frames: 18
Frame Time: 0.008333
 2.2811 35.5712 -12.0903 173.4681 4.7968 -179.8275 -11.8066 10.8130 -0.3227 2.6935 -3.1566 9.0801 9.6071 11.3781 11.5193 -50.7492 -2.6633 -12.6919 0.0000 -1.2867 11.6298 -0.0107 -1.3152 -0.4661 33.1476 26.2537 -0.0000 -6.9162 -20.3073 -17.9504 -37.8189 -10.9757 15.1864 0.0000 17.6294 44.1195 0.2125 -4.7579 2.5596 32.8623 -24.3270 -0.0000 2.8267 13.8058 -3.1473 -3.7000 -0.0000 -0.0000 -16.7896 25.5027 3.3670 20.2026 0.0000 -0.0000 0.4881 -5.5573 -0.3408 -2.7113 0.0000 0.0000 -16.1403 -27.8200 -8.4413 20.7909 0.0000 -0.0000
 2.2803 35.5714 -12.0868 173.4653 4.7706 -179.8221 -11.7178 10.8390 -0.3227 2.5141 -3.1868 9.0004 9.7837 11.4533 11.3895 -50.7968 -2.4123 -12.8553 -0.0000 -1.6997 11.4349 0.0049 -1.3666 0.2063 33.1476 26.2537 -0.0000 -6.8619 -20.3476 -18.0177 -37.8434 -11.6692 15.3114 -0.0000 18.2233 43.8303 0.1434 -4.7067 1.7471 32.8623 -24.3270 -0.0000 2.8171 13.7619 -3.1507 -3.7027 0.0000 0.0000 -16.7780 25.5168 3.3618 20.1910 -0.0000 0.0000 0.4856 -5.5934 -0.3458 -2.7200 -0.0000 -0.0000 -16.1324 -27.8067 -8.4588 20.7706 -0.0000 0.0000
 2.2801 35.5714 -12.0825 173.4638 4.7594 -179.8225 -11.6175 10.8467 -0.3006 2.3064 -3.1671 8.8753 9.8712 11.5659 11.2833 -50.6124 -2.1058 -13.1023 0.0000 -2.2081 10.9970 0.0223 -1.4562 0.8774 33.1476 26.2537 -0.0000 -6.8105 -20.3638 -18.1156 -37.8147 -12.4314 15.4925 -0.0000 18.9299 43.5700 0.0768 -4.9342 0.8927 32.8623 -24.3270 -0.0000 2.8017 13.7420 -3.1481 -3.6957 0.0000 0.0000 -16.7806 25.5231 3.3722 20.1824 -0.0000 0.0000 0.4828 -5.5752 -0.3444 -2.7284 -0.0000 -0.0000 -16.1253 -27.8313 -8.4666 20.8408 0.0000 -0.0000
 2.2793 35.5711 -12.0769 173.4644 4.7380 -179.8228 -11.5151 10.8560 -0.2769 2.1023 -3.1131 8.7686 9.9728 11.6506 11.1690 -50.4006 -1.7633 -13.3729 0.0000 -2.7297 10.4800 0.0410 -1.4044 1.6740 33.1476 26.2537 0.0000 -6.7074 -20.3888 -18.1894 -37.7345 -13.2420 15.7089 -0.0000 19.7322 43.0697 0.0159 -5.1835 0.1757 32.8623 -24.3270 -0.0000 2.7909 13.7138 -3.1476 -3.6992 0.0000 0.0000 -16.7827 25.5251 3.4104 20.1962 0.0000 0.0000 0.4786 -5.5929 -0.3430 -2.7351 0.0000 0.0000 -16.1363 -27.8542 -8.4689 20.8077 -0.0000 0.0000
 2.2790 35.5719 -12.0710 173.4630 4.7163 -179.8205 -11.3931 10.8924 -0.2656 1.8604 -3.1230 8.6551 9.9623 11.7554 11.1275 -49.8673 -1.4033 -13.7876 -0.0000 -3.2912 9.8319 0.0729 -1.5676 2.6618 33.1476 26.2537 0.0000 -6.5913 -20.4908 -18.2271 -37.4928 -13.9865 15.9806 -0.0000 20.4472 42.1710 -0.1058 -5.3881 -1.1264 32.8623 -24.3270 -0.0000 2.7677 13.7134 -3.1472 -3.6824 0.0000 0.0000 -16.7685 25.5195 3.4068 20.0612 -0.0000 0.0000 0.4724 -5.5833 -0.3468 -2.7369 -0.0000 0.0000 -16.1270 -27.8590 -8.5139 20.7425 -0.0000 0.0000
 2.2785 35.5723 -12.0628 173.4558 4.6950 -179.8175 -11.2566 10.9217 -0.2567 1.5733 -3.1307 8.5262 10.0906 11.9045 11.0397 -49.4198 -1.0456 -14.2518 0.0000 -3.8331 9.1655 0.1155 -1.6837 3.9249 33.1476 26.2537 0.0000 -6.4591 -20.6223 -18.2261 -37.2160 -14.7244 16.2948 0.0000 21.1791 41.2249 -0.2241 -5.5419 -2.3193 32.8623 -24.3270 -0.0000 2.7425 13.6850 -3.1483 -3.6807 -0.0000 -0.0000 -16.7687 25.5215 3.4341 20.0899 0.0000 -0.0000 0.4537 -5.5982 -0.3460 -2.7403 0.0000 0.0000 -16.1237 -27.8796 -8.5146 20.7890 -0.0000 -0.0000
 2.2779 35.5727 -12.0552 173.4529 4.6676 -179.8213 -11.1192 10.9547 -0.2364 1.2819 -3.1273 8.3843 10.3008 12.0775 10.9734 -48.7351 -0.7169 -14.8276 -0.0000 -4.3326 8.2479 0.1814 -1.9971 5.1897 33.1476 26.2537 -0.0000 -6.2168 -20.8041 -18.1538 -37.1094 -15.4605 16.6084 0.0000 21.8198 40.4887 -0.3501 -5.5812 -3.5950 32.8623 -24.3270 -0.0000 2.7132 13.6855 -3.1424 -3.6642 0.0000 0.0000 -16.7638 25.5029 3.4441 20.0776 0.0000 -0.0000 0.4416 -5.6092 -0.3442 -2.7393 -0.0000 0.0000 -16.1445 -27.8804 -8.5272 20.8843 -0.0000 0.0000
 2.2778 35.5726 -12.0488 173.4596 4.6349 -179.8203 -10.9627 10.9821 -0.2292 0.9796 -3.1213 8.2564 10.5663 12.2737 10.8930 -47.8717 -0.4435 -15.4686 -0.0000 -4.8042 7.5735 0.2743 -2.3083 6.7783 33.1476 26.2537 0.0000 -5.9516 -20.9963 -18.0546 -36.9471 -16.1953 16.9682 -0.0000 22.4082 39.7690 -0.4949 -5.5039 -5.1465 32.8623 -24.3270 0.0000 2.7093 13.6730 -3.1439 -3.6732 0.0000 0.0000 -16.7601 25.4802 3.4694 20.0944 -0.0000 0.0000 0.4528 -5.6289 -0.3420 -2.7645 -0.0000 -0.0000 -16.1183 -27.9022 -8.5570 20.8217 -0.0000 0.0000
 2.2768 35.5728 -12.0388 173.4582 4.6086 -179.8236 -10.8039 11.0175 -0.2154 0.6622 -3.1371 8.1177 10.8447 12.4738 10.8375 -46.9858 -0.1345 -16.2088 -0.0000 -5.2841 6.8257 0.3469 -2.4153 8.1748 33.1476 26.2537 -0.0000 -5.7052 -21.2061 -17.9043 -36.2853 -16.7643 17.4278 -0.0000 22.9904 38.7254 -0.6832 -5.5811 -6.9903 32.8623 -24.3270 0.0000 2.6830 13.6645 -3.1402 -3.6669 -0.0000 -0.0000 -16.7586 25.4581 3.5074 20.1238 0.0000 -0.0000 0.4354 -5.6387 -0.3415 -2.7563 -0.0000 0.0000 -16.0992 -27.8803 -8.6110 20.8559 0.0000 -0.0000
 2.2768 35.5731 -12.0273 173.4578 4.5949 -179.8256 -10.6378 11.0585 -0.2026 0.3340 -3.1100 7.9919 11.2411 12.6738 10.6971 -46.3135 0.1420 -16.9218 -0.0000 -5.6045 6.3277 0.4650 -2.8207 9.3660 33.1476 26.2537 0.0000 -5.3750 -21.4585 -17.7069 -35.7778 -17.3105 17.9481 -0.0000 23.4225 37.8632 -0.8722 -5.6323 -8.8170 32.8623 -24.3270 0.0000 2.6681 13.6648 -3.1385 -3.6828 -0.0000 -0.0000 -16.7359 25.4563 3.5134 20.1001 0.0000 -0.0000 0.4158 -5.6552 -0.3347 -2.7557 0.0000 0.0000 -16.0960 -27.8910 -8.6140 20.8504 0.0000 -0.0000
 2.2767 35.5733 -12.0161 173.4577 4.5728 -179.8328 -10.4598 11.0902 -0.1895 -0.0383 -3.0439 7.8873 11.5224 12.8094 10.5967 -45.6112 0.5497 -17.6832 -0.0000 -5.9365 6.2114 0.5899 -3.1785 10.5197 33.1476 26.2537 -0.0000 -5.0622 -21.6796 -17.4881 -35.2110 -17.8591 18.5009 0.0000 23.7480 37.1311 -1.0803 -5.6959 -10.7581 32.8623 -24.3270 0.0000 2.6393 13.7173 -3.1340 -3.6680 -0.0000 -0.0000 -16.7359 25.3868 3.5413 20.2062 0.0000 -0.0000 0.4008 -5.6765 -0.3266 -2.7556 -0.0000 -0.0000 -16.0854 -27.8744 -8.6573 20.8520 -0.0000 0.0000
 2.2760 35.5733 -12.0031 173.4609 4.5427 -179.8397 -10.2782 11.1198 -0.1688 -0.4083 -2.9343 7.8004 11.7713 12.8612 10.4477 -44.9801 1.0025 -18.4050 -0.0000 -6.1740 6.4067 0.7324 -3.5664 11.6125 33.1476 26.2537 -0.0000 -4.7296 -21.9493 -17.2768 -34.5301 -18.3350 19.1837 0.0000 23.9498 36.3356 -1.2865 -5.6570 -12.8343 32.8623 -24.3270 -0.0000 2.6123 13.7386 -3.1276 -3.6601 0.0000 0.0000 -16.7364 25.3306 3.5679 20.2476 -0.0000 0.0000 0.3913 -5.6943 -0.3169 -2.7685 0.0000 0.0000 -16.0766 -27.9101 -8.6645 20.8176 0.0000 -0.0000
 2.2753 35.5735 -11.9882 173.4417 4.5106 -179.8420 -10.1125 11.1245 -0.1502 -0.7857 -2.8776 7.6698 11.9815 12.9015 10.2727 -44.2727 1.4508 -19.1538 -0.0000 -6.3160 6.7047 0.9139 -4.1478 12.4374 33.1476 26.2537 -0.0000 -4.3113 -22.1958 -17.0166 -33.8435 -18.8101 19.9247 0.0000 24.1309 35.6686 -1.5313 -5.8446 -14.7095 32.8623 -24.3270 0.0000 2.5553 13.7635 -3.1233 -3.6473 0.0000 0.0000 -16.7326 25.2915 3.6032 20.1910 0.0000 -0.0000 0.3555 -5.7218 -0.3131 -2.7751 0.0000 0.0000 -16.0974 -27.9023 -8.6974 20.9299 0.0000 -0.0000
 2.2746 35.5736 -11.9692 173.4127 4.4792 -179.8395 -9.9408 11.1349 -0.1455 -1.1688 -2.8276 7.5575 12.1582 12.9537 10.0490 -43.4932 1.8292 -19.9255 0.0000 -6.4753 6.9761 1.0366 -4.4507 13.1245 33.1476 26.2537 -0.0000 -3.9290 -22.3712 -16.7110 -33.1472 -19.3198 20.6046 -0.0000 24.1797 35.0862 -1.6682 -5.7109 -16.3134 32.8623 -24.3270 -0.0000 2.4905 13.7475 -3.1221 -3.6475 -0.0000 -0.0000 -16.7154 25.2723 3.6415 20.1752 -0.0000 0.0000 0.2996 -5.7312 -0.3088 -2.7790 -0.0000 -0.0000 -16.0617 -27.9240 -8.7443 20.8150 0.0000 0.0000
 2.2737 35.5741 -11.9565 173.4312 4.4339 -179.8481 -9.7422 11.1438 -0.1232 -1.5246 -2.7883 7.4399 12.2991 12.9167 9.7869 -42.6783 2.2293 -20.6666 -0.0000 -6.5826 7.1127 1.1647 -4.8092 13.6305 33.1476 26.2537 -0.0000 -3.4840 -22.5887 -16.3801 -32.4793 -19.8089 21.3517 0.0000 24.1848 34.6159 -1.7561 -5.5450 -17.6036 32.8623 -24.3270 0.0000 2.4985 13.7289 -3.1181 -3.6836 0.0000 0.0000 -16.6872 25.2479 3.6555 20.1886 0.0000 0.0000 0.3186 -5.7657 -0.3006 -2.8073 0.0000 0.0000 -16.0328 -27.9083 -8.7919 20.9019 0.0000 0.0000
 2.2727 35.5746 -11.9382 173.4062 4.3804 -179.8545 -9.5640 11.1407 -0.1054 -1.9477 -2.7450 7.3340 12.5181 12.8713 9.4499 -42.0555 2.6633 -21.3920 0.0000 -6.6822 7.3828 1.1877 -4.8468 13.7863 33.1476 26.2537 0.0000 -3.0365 -22.8140 -15.9913 -31.7606 -20.2293 22.1410 0.0000 24.1844 34.1842 -1.8834 -5.5944 -18.6397 32.8623 -24.3270 -0.0000 2.4409 13.6893 -3.1089 -3.6993 0.0000 0.0000 -16.6690 25.2284 3.6980 20.2216 -0.0000 -0.0000 0.2830 -5.8037 -0.2885 -2.8354 -0.0000 0.0000 -16.0331 -27.9540 -8.7600 20.9053 0.0000 -0.0000
 2.2725 35.5751 -11.9215 173.3779 4.2944 -179.8482 -9.3936 11.0726 -0.1329 -2.3613 -2.7056 7.2835 12.7249 12.8516 9.1169 -41.4027 3.1021 -22.1505 -0.0000 -6.8111 7.5361 1.1473 -4.7323 13.6445 33.1476 26.2537 0.0000 -2.6233 -22.9421 -15.5695 -31.1596 -20.7283 22.9057 0.0000 24.0723 33.9811 -1.9926 -5.6718 -19.3939 32.8623 -24.3270 0.0000 2.3850 13.6323 -3.1118 -3.7196 0.0000 -0.0000 -16.6326 25.2015 3.7122 20.2374 -0.0000 0.0000 0.2593 -5.8694 -0.2888 -2.8788 -0.0000 0.0000 -15.9860 -27.9561 -8.8256 20.8618 0.0000 0.0000
 2.2703 35.5768 -11.8990 173.3388 4.2712 -179.8628 -9.2246 11.0499 -0.1078 -2.7844 -2.6441 7.2214 12.9365 12.8059 8.7063 -40.7683 3.5151 -22.9060 0.0000 -6.8535 7.6522 1.1009 -4.6888 13.2291 33.1476 26.2537 0.0000 -2.2094 -22.9610 -15.1033 -30.4264 -21.2933 23.6291 0.0000 24.0268 33.6185 -1.9942 -5.6247 -19.5582 32.8623 -24.3270 -0.0000 2.3130 13.6134 -3.0961 -3.7452 -0.0000 -0.0000 -16.6033 25.1970 3.7422 20.2644 -0.0000 0.0000 0.1882 -5.8696 -0.2710 -2.8816 0.0000 0.0000 -15.9792 -27.9979 -8.7918 20.9611 0.0000 -0.0000
